<svg version="1.2" xmlns="http://www.w3.org/2000/svg" viewBox="0 0 1120 174" width="1120" height="174"><style>.a{fill:#fff}</style><path class="a" d="m110 139l5 8.6h-10z"/><path class="a" d="m115 147.6l5 8.7h-10z"/><path class="a" d="m300 87l5 8.7h-10z"/><path class="a" d="m595 95.7l5 8.6h-10z"/><path class="a" d="m630 121.6l5 8.7h-10z"/><path class="a" d="m635 113l5 8.6h-10z"/><path class="a" d="m735 43.7l5-8.7h-10z"/><path class="a" d="m785 26.4l5 8.6h-10z"/><path class="a" d="m790 17.7l5 8.7h-10z"/><path class="a" d="m1050 17.7l5 8.7h-10z"/><path class="a" d="m1055 26.4l5 8.6h-10z"/><path class="a" d="m1045 26.4l5-8.7h-10z"/><path class="a" d="m1050 35l5-8.6h-10z"/><path class="a" d="m1060 35l5 8.7h-10z"/><path class="a" d="m1065 43.7l5 8.7h-10z"/><path class="a" d="m1055 43.7l5-8.7h-10z"/><path class="a" d="m1060 52.4l5-8.7h-10z"/><path class="a" d="m1070 52.4l5 8.6h-10z"/><path class="a" d="m1075 61l5 8.7h-10z"/><path class="a" d="m1065 61l5-8.6h-10z"/><path class="a" d="m1070 69.7l5-8.7h-10z"/><path class="a" d="m1075 78.3l5-8.6h-10z"/><path class="a" d="m330 139l5 8.6h-10z"/><path class="a" d="m335 147.6l5 8.7h-10z"/><path class="a" d="m325 147.6l5-8.6h-10z"/><path class="a" d="m330 156.3l5-8.7h-10z"/><path class="a" d="m400 87l-5 8.7h10z"/><path class="a" d="m540 69.7l-5 8.6h10z"/><path class="a" d="m545 78.3l-5 8.7h10z"/><path class="a" d="m475 9.1l-5 8.6h10z"/><path class="a" d="m480 17.7l-5 8.7h10z"/><path class="a" d="m445 61l-5 8.7h10z"/><path class="a" d="m450 69.7l-5 8.6h10z"/><path class="a" d="m500 35l-5 8.7h10z"/><path class="a" d="m490 35l-5 8.7h10z"/><path class="a" d="m415 61l-5 8.7h10z"/><path class="a" d="m425 61l-5 8.7h10z"/><path class="a" d="m420 52.4l-5 8.6h10z"/><path class="a" d="m645 9.1l-5 8.6h10z"/><path class="a" d="m675 9.1l-5 8.6h10z"/><path class="a" d="m665 9.1l-5 8.6h10z"/><path class="a" d="m635 9.1l-5 8.6h10z"/><path class="a" d="m605 95.7l-5-8.7h10z"/><path class="a" d="m630 139l-5-8.7h10z"/><path class="a" d="m475 26.4l-5-8.7h10z"/><path class="a" d="m495 43.7l-5-8.7h10z"/><path class="a" d="m480 35l-5-8.6h10z"/><path class="a" d="m450 87l-5-8.7h10z"/><path class="a" d="m445 78.3l-5-8.6h10z"/><path class="a" d="m420 17.7l-5 8.7h10z"/><path class="a" d="m425 26.4l-5-8.7h10z"/><path class="a" d="m415 26.4l-5 8.6h10z"/><path class="a" d="m420 35l-5-8.6h10z"/><path class="a" d="m405 26.4l-5 8.6h10z"/><path class="a" d="m400 17.7l-5 8.7h10z"/><path class="a" d="m400 35l-5-8.6h10z"/><path class="a" d="m395 26.4l-5-8.7h10z"/><path class="a" d="m540 87l-5-8.7h10z"/><path class="a" d="m535 78.3l-5-8.6h10z"/><path class="a" d="m420 69.7l-5 8.6h10z"/><path class="a" d="m365 78.3l-5 8.7h10z"/><path class="a" d="m370 87l-5 8.7h10z"/><path class="a" d="m415 78.3l-5-8.6h10z"/><path class="a" d="m420 69.7l-5-8.7h10z"/><path class="a" d="m425 78.3l-5-8.6h10z"/><path class="a" d="m420 87l-5-8.7h10z"/><path class="a" d="m365 95.7l-5-8.7h10z"/><path class="a" d="m905 43.7l-5 8.7h10z"/><path class="a" d="m910 52.4l-5-8.7h10z"/><path class="a" d="m915 43.7l-5 8.7h10z"/><path class="a" d="m920 52.4l-5-8.7h10z"/><path class="a" d="m865 130.3l-5-8.7h10z"/><path class="a" d="m845 147.6l-5-8.6h10z"/><path class="a" d="m850 156.3l-5-8.7h10z"/><path class="a" d="m870 121.6l-5 8.7h10z"/><path class="a" d="m850 139l-5 8.6h10z"/><path class="a" d="m855 147.6l-5 8.7h10z"/><path class="a" d="m880 121.6l-5 8.7h10z"/><path class="a" d="m875 130.3l-5-8.7h10z"/><path class="a" d="m795 26.4l-5-8.7h10z"/><path class="a" d="m790 35l-5-8.6h10z"/><path class="a" d="m210 121.6l-5 8.7h10z"/><path class="a" d="m215 130.3l-5-8.7h10z"/><path class="a" d="m220 121.6l-5 8.7h10z"/><path class="a" d="m225 130.3l-5-8.7h10z"/><path class="a" d="m365 130.3l-5-8.7h10z"/><path class="a" d="m370 121.6l-5 8.7h10z"/><path class="a" d="m375 130.3l-5-8.7h10z"/><path class="a" d="m380 121.6l-5 8.7h10z"/><path class="a" d="m110 156.3l-5-8.7h10z"/><path class="a" d="m380 52.4l-5-8.7h10z"/><path class="a" d="m365 43.7l-5 8.7h10z"/><path class="a" d="m370 52.4l-5-8.7h10z"/><path class="a" d="m375 43.7l-5 8.7h10z"/><path class="a" d="m305 43.7l-5-8.7h10z"/><path class="a" d="m290 35l-5 8.7h10z"/><path class="a" d="m295 43.7l-5-8.7h10z"/><path class="a" d="m300 35l-5 8.7h10z"/><path class="a" d="m270 104.3l-5-8.6h10z"/><path class="a" d="m255 95.7l-5 8.6h10z"/><path class="a" d="m260 104.3l-5-8.6h10z"/><path class="a" d="m265 95.7l-5 8.6h10z"/><path class="a" d="m770 104.3l-5-8.6h10z"/><path class="a" d="m740 35l-5 8.7h10z"/><path class="a" d="m745 43.7l-5-8.7h10z"/><path class="a" d="m750 35l-5 8.7h10z"/><path class="a" d="m640 17.7l-5-8.6h10z"/><path class="a" d="m670 17.7l-5-8.6h10z"/><path class="a" d="m660 17.7l-5-8.6h10z"/><path class="a" d="m585 95.7l5 8.6h-10z"/><path class="a" d="m590 104.3l5-8.6h-10z"/><path class="a" d="m635 130.3l5-8.7h-10z"/><path class="a" d="m685 78.3l-5 8.7h10z"/><path class="a" d="m675 78.3l-5 8.7h10z"/><path class="a" d="m680 87l-5-8.7h10z"/><path class="a" d="m670 87l-5-8.7h10z"/><path class="a" d="m535 9.1l10 17.3h-20z"/><path class="a" d="m545 26.4l10-17.3h-20z"/><path class="a" d="m515 9.1l10 17.3h-20z"/><path class="a" d="m525 26.4l10-17.3h-20z"/><path class="a" d="m485 26.4l10-17.3h-20z"/><path class="a" d="m555 9.1l10 17.3h-20z"/><path class="a" d="m565 26.4l10-17.3h-20z"/><path class="a" d="m575 9.1l10 17.3h-20z"/><path class="a" d="m585 26.4l10-17.3h-20z"/><path class="a" d="m595 9.1l10 17.3h-20z"/><path class="a" d="m605 26.4l10-17.3h-20z"/><path class="a" d="m615 9.1l10 17.3h-20z"/><path class="a" d="m630 17.7l10 17.3h-20z"/><path class="a" d="m680 17.7l10 17.3h-20z"/><path class="a" d="m655 26.4l10 17.3h-20z"/><path class="a" d="m640 35l10-17.3h-20z"/><path class="a" d="m625 26.4l10-17.3h-20z"/><path class="a" d="m670 35l10-17.3h-20z"/><path class="a" d="m620 35l10 17.4h-20z"/><path class="a" d="m810 139l10 17.3h-20z"/><path class="a" d="m630 52.4l10-17.4h-20z"/><path class="a" d="m655 61l10-17.3h-20z"/><path class="a" d="m665 43.7l10 17.3h-20z"/><path class="a" d="m675 61l10 17.3h-20z"/><path class="a" d="m665 78.3l10-17.3h-20z"/><path class="a" d="m610 52.4l10 17.3h-20z"/><path class="a" d="m580 69.7l10 17.3h-20z"/><path class="a" d="m615 78.3l10 17.4h-20z"/><path class="a" d="m620 69.7l10-17.3h-20z"/><path class="a" d="m690 35l-10 17.4h20z"/><path class="a" d="m680 52.4l-10-17.4h20z"/><path class="a" d="m700 52.4l-10 17.3h20z"/><path class="a" d="m690 69.7l-10-17.3h20z"/><path class="a" d="m710 69.7l-10 17.3h20z"/><path class="a" d="m700 87l-10-17.3h20z"/><path class="a" d="m730 87l-10 17.3h20z"/><path class="a" d="m740 104.3l-10-17.3h20z"/><path class="a" d="m720 104.3l10 17.3h-20z"/><path class="a" d="m730 121.6l10-17.3h-20z"/><path class="a" d="m710 121.6l10 17.4h-20z"/><path class="a" d="m720 139l10-17.4h-20z"/><path class="a" d="m700 139l10 17.3h-20z"/><path class="a" d="m710 156.3l10-17.3h-20z"/><path class="a" d="m710 17.7l10 17.3h-20z"/><path class="a" d="m700 35l10-17.3h-20z"/><path class="a" d="m720 35l-10 17.4h20z"/><path class="a" d="m710 52.4l-10-17.4h20z"/><path class="a" d="m730 52.4l-10 17.3h20z"/><path class="a" d="m720 69.7l-10-17.3h20z"/><path class="a" d="m740 69.7l-10 17.3h20z"/><path class="a" d="m730 87l-10-17.3h20z"/><path class="a" d="m700 87l-10 17.3h20z"/><path class="a" d="m710 104.3l-10-17.3h20z"/><path class="a" d="m690 104.3l10 17.3h-20z"/><path class="a" d="m700 121.6l10-17.3h-20z"/><path class="a" d="m680 121.6l10 17.4h-20z"/><path class="a" d="m690 139l10-17.4h-20z"/><path class="a" d="m670 139l10 17.3h-20z"/><path class="a" d="m680 156.3l10-17.3h-20z"/><path class="a" d="m455 9.1l5 8.6h-10z"/><path class="a" d="m445 9.1l5 8.6h-10z"/><path class="a" d="m455 9.1l5 8.6"/><path class="a" d="m460 17.7l5-8.6h-10z"/><path class="a" d="m450 17.7l5-8.6h-10z"/><path class="a" d="m440 17.7l-10 17.3h20z"/><path class="a" d="m450 35l-10-17.3h20z"/><path class="a" d="m430 35l10 17.4h-20z"/><path class="a" d="m440 52.4l10-17.4h-20z"/><path class="a" d="m430 69.7l10-17.3h-20z"/><path class="a" d="m410 69.7l10 17.3h-20z"/><path class="a" d="m420 87l10 17.3h-20z"/><path class="a" d="m410 104.3l10-17.3h-20z"/><path class="a" d="m430 104.3l-10 17.3h20z"/><path class="a" d="m420 121.6l-10-17.3h20z"/><path class="a" d="m440 121.6l-10 17.4h20z"/><path class="a" d="m430 139l-10-17.4h20z"/><path class="a" d="m450 139l-10 17.3h20z"/><path class="a" d="m440 156.3l-10-17.3h20z"/><path class="a" d="m830 17.7l10 17.3h-20z"/><path class="a" d="m840 139l-10-17.4h20z"/><path class="a" d="m840 35l-10-17.3h20z"/><path class="a" d="m810 17.7l-10 17.3h20z"/><path class="a" d="m820 35l-10-17.3h20z"/><path class="a" d="m870 17.7l10 17.3h-20z"/><path class="a" d="m880 35l-10-17.3h20z"/><path class="a" d="m890 17.7l10 17.3h-20z"/><path class="a" d="m900 35l-10-17.3h20z"/><path class="a" d="m850 17.7l-10 17.3h20z"/><path class="a" d="m860 35l-10-17.3h20z"/><path class="a" d="m800 35l-10 17.4h20z"/><path class="a" d="m810 52.4l-10-17.4h20z"/><path class="a" d="m810 52.4l10 17.3h-20z"/><path class="a" d="m800 69.7l10-17.3h-20z"/><path class="a" d="m820 69.7l-10 17.3h20z"/><path class="a" d="m810 87l-10-17.3h20z"/><path class="a" d="m830 87l-10 17.3h20z"/><path class="a" d="m820 104.3l-10-17.3h20z"/><path class="a" d="m840 104.3l-10 17.3h20z"/><path class="a" d="m830 121.6l-10-17.3h20z"/><path class="a" d="m950 17.7l10 17.3h-20z"/><path class="a" d="m940 35l10 17.4h-20z"/><path class="a" d="m950 52.4l10-17.4h-20z"/><path class="a" d="m920 17.7l10 17.3h-20z"/><path class="a" d="m930 35l10-17.3h-20z"/><path class="a" d="m960 35l10-17.3h-20z"/><path class="a" d="m930 52.4l10 17.3h-20z"/><path class="a" d="m940 69.7l10-17.3h-20z"/><path class="a" d="m920 69.7l10 17.3h-20z"/><path class="a" d="m930 87l10-17.3h-20z"/><path class="a" d="m910 121.6l-10 17.4h20z"/><path class="a" d="m900 139l-10-17.4h20z"/><path class="a" d="m900 104.3l-10 17.3h20z"/><path class="a" d="m910 87l-10 17.3h20z"/><path class="a" d="m920 104.3l-10-17.3h20z"/><path class="a" d="m910 121.6l-10-17.3h20z"/><path class="a" d="m900 52.4l10 17.3h-20z"/><path class="a" d="m910 69.7l10-17.3h-20z"/><path class="a" d="m890 69.7l10 17.3h-20z"/><path class="a" d="m900 87l10-17.3h-20z"/><path class="a" d="m880 121.6l10-17.3h-20z"/><path class="a" d="m880 156.3l10-17.3h-20z"/><path class="a" d="m860 156.3l10-17.3h-20z"/><path class="a" d="m830 139l10 17.3h-20z"/><path class="a" d="m730 139l10 17.3h-20z"/><path class="a" d="m820 156.3l10-17.3h-20z"/><path class="a" d="m800 156.3l10-17.3h-20z"/><path class="a" d="m790 139l10 17.3h-20z"/><path class="a" d="m780 156.3l10-17.3h-20z"/><path class="a" d="m770 139l10 17.3h-20z"/><path class="a" d="m760 156.3l10-17.3h-20z"/><path class="a" d="m750 139l10 17.3h-20z"/><path class="a" d="m740 156.3l10-17.3h-20z"/><path class="a" d="m730 17.7l5 8.7h-10z"/><path class="a" d="m735 26.4l5 8.6h-10z"/><path class="a" d="m725 26.4l5-8.7h-10z"/><path class="a" d="m730 35l5-8.6h-10z"/><path class="a" d="m795 78.3l10 17.4h-20z"/><path class="a" d="m780 35l10-17.3h-20z"/><path class="a" d="m760 35l10-17.3h-20z"/><path class="a" d="m770 17.7l10 17.3h-20z"/><path class="a" d="m740 35l10-17.3h-20z"/><path class="a" d="m750 17.7l10 17.3h-20z"/><path class="a" d="m785 95.7l10-17.4h-20z"/><path class="a" d="m775 78.3l10 17.4h-20z"/><path class="a" d="m760 87l10 17.3h-20z"/><path class="a" d="m765 95.7l10-17.4h-20z"/><path class="a" d="m890 104.3l10-17.3h-20z"/><path class="a" d="m940 139l10 17.3h-20z"/><path class="a" d="m910 156.3l10-17.3h-20z"/><path class="a" d="m950 156.3l10-17.3h-20z"/><path class="a" d="m920 139l10 17.3h-20z"/><path class="a" d="m880 87l10 17.3h-20z"/><path class="a" d="m870 104.3l10 17.3h-20z"/><path class="a" d="m870 139l10 17.3h-20z"/><path class="a" d="m850 121.6l10 17.4h-20z"/><path class="a" d="m890 139l10 17.3h-20z"/><path class="a" d="m930 156.3l10-17.3h-20z"/><path class="a" d="m1000 17.7l10 17.3h-20z"/><path class="a" d="m1010 35l-10 17.4h20z"/><path class="a" d="m1000 52.4l-10-17.4h20z"/><path class="a" d="m1020 52.4l-10 17.3h20z"/><path class="a" d="m1010 69.7l-10-17.3h20z"/><path class="a" d="m1030 69.7l-10 17.3h20z"/><path class="a" d="m1020 87l-10-17.3h20z"/><path class="a" d="m1020 87l-10 17.3h20z"/><path class="a" d="m1030 104.3l-10-17.3h20z"/><path class="a" d="m1010 104.3l10 17.3h-20z"/><path class="a" d="m1020 121.6l10-17.3h-20z"/><path class="a" d="m1000 121.6l10 17.4h-20z"/><path class="a" d="m1010 139l10-17.4h-20z"/><path class="a" d="m990 139l10 17.3h-20z"/><path class="a" d="m1000 156.3l10-17.3h-20z"/><path class="a" d="m990 87l-10 17.3h20z"/><path class="a" d="m1000 69.7l-10 17.3h20z"/><path class="a" d="m1000 104.3l-10-17.3h20z"/><path class="a" d="m980 104.3l10 17.3h-20z"/><path class="a" d="m990 121.6l10-17.3h-20z"/><path class="a" d="m970 121.6l10 17.4h-20z"/><path class="a" d="m980 139l10-17.4h-20z"/><path class="a" d="m960 139l10 17.3h-20z"/><path class="a" d="m970 156.3l10-17.3h-20z"/><path class="a" d="m1110 156.3l-10 17.3h20z"/><path class="a" d="m1100 173.6l-10-17.3h20z"/><path class="a" d="m1030 17.7l10 17.3h-20z"/><path class="a" d="m1020 35l10-17.3h-20z"/><path class="a" d="m1020 0.4l10 17.3h-20z"/><path class="a" d="m1010 17.7l10-17.3h-20z"/><path class="a" d="m990 35l10-17.3h-20z"/><path class="a" d="m1090 52.4l10-17.4h-20z"/><path class="a" d="m1070 52.4l10-17.4h-20z"/><path class="a" d="m1060 35l10-17.3h-20z"/><path class="a" d="m1080 69.7l10-17.3h-20z"/><path class="a" d="m1080 35l10-17.3h-20z"/><path class="a" d="m1100 35l10-17.3h-20z"/><path class="a" d="m1040 35l-10 17.4h20z"/><path class="a" d="m1030 52.4l-10-17.4h20z"/><path class="a" d="m1050 52.4l-10 17.3h20z"/><path class="a" d="m1080 35l-10 17.4h20z"/><path class="a" d="m1070 17.7l-10 17.3h20z"/><path class="a" d="m1090 17.7l-10 17.3h20z"/><path class="a" d="m1040 69.7l-10-17.3h20z"/><path class="a" d="m1060 69.7l-10 17.3h20z"/><path class="a" d="m1050 87l-10-17.3h20z"/><path class="a" d="m1070 87l10 17.3h-20z"/><path class="a" d="m1060 104.3l10-17.3h-20z"/><path class="a" d="m1080 104.3l-10 17.3h20z"/><path class="a" d="m1070 121.6l-10-17.3h20z"/><path class="a" d="m1090 121.6l-10 17.4h20z"/><path class="a" d="m1080 139l-10-17.4h20z"/><path class="a" d="m1100 139l-10 17.3h20z"/><path class="a" d="m1090 156.3l-10-17.3h20z"/><path class="a" d="m70 17.7l-5 8.7h10z"/><path class="a" d="m65 26.4l-5 8.6h10z"/><path class="a" d="m75 26.4l-5-8.7h10z"/><path class="a" d="m70 35l-5-8.6h10z"/><path class="a" d="m60 35l-5 8.7h10z"/><path class="a" d="m55 43.7l-5 8.7h10z"/><path class="a" d="m65 43.7l-5-8.7h10z"/><path class="a" d="m60 52.4l-5-8.7h10z"/><path class="a" d="m50 52.4l-5 8.6h10z"/><path class="a" d="m45 61l-5 8.7h10z"/><path class="a" d="m55 61l-5-8.6h10z"/><path class="a" d="m50 69.7l-5-8.7h10z"/><path class="a" d="m45 78.3l-5-8.6h10z"/><path class="a" d="m90 17.7l-10 17.3h20z"/><path class="a" d="m100 35l-10-17.3h20z"/><path class="a" d="m100 0.4l-10 17.3h20z"/><path class="a" d="m110 17.7l-10-17.3h20z"/><path class="a" d="m30 52.4l-10-17.4h20z"/><path class="a" d="m50 52.4l-10-17.4h20z"/><path class="a" d="m60 35l-10-17.3h20z"/><path class="a" d="m40 69.7l-10-17.3h20z"/><path class="a" d="m40 35l-10-17.3h20z"/><path class="a" d="m20 35l-10-17.3h20z"/><path class="a" d="m80 35l10 17.4h-20z"/><path class="a" d="m90 52.4l10-17.4h-20z"/><path class="a" d="m70 52.4l10 17.3h-20z"/><path class="a" d="m40 35l10 17.4h-20z"/><path class="a" d="m50 17.7l10 17.3h-20z"/><path class="a" d="m30 17.7l10 17.3h-20z"/><path class="a" d="m80 69.7l10-17.3h-20z"/><path class="a" d="m60 69.7l10 17.3h-20z"/><path class="a" d="m70 87l10-17.3h-20z"/><path class="a" d="m50 87l-10 17.3h20z"/><path class="a" d="m60 104.3l-10-17.3h20z"/><path class="a" d="m40 104.3l10 17.3h-20z"/><path class="a" d="m50 121.6l10-17.3h-20z"/><path class="a" d="m30 121.6l10 17.4h-20z"/><path class="a" d="m40 139l10-17.4h-20z"/><path class="a" d="m20 139l10 17.3h-20z"/><path class="a" d="m30 156.3l10-17.3h-20z"/><path class="a" d="m10 156.3l10 17.3h-20z"/><path class="a" d="m20 173.6l10-17.3h-20z"/><path class="a" d="m270 17.7l-10 17.3h20z"/><path class="a" d="m280 35l-10-17.3h20z"/><path class="a" d="m250 17.7l-10 17.3h20z"/><path class="a" d="m260 35l-10-17.3h20z"/><path class="a" d="m230 17.7l-10 17.3h20z"/><path class="a" d="m240 35l-10-17.3h20z"/><path class="a" d="m210 17.7l-10 17.3h20z"/><path class="a" d="m220 35l-10-17.3h20z"/><path class="a" d="m200 35l-10-17.3h20z"/><path class="a" d="m260 35l10 17.4h-20z"/><path class="a" d="m270 52.4l10-17.4h-20z"/><path class="a" d="m250 52.4l10 17.3h-20z"/><path class="a" d="m260 69.7l10-17.3h-20z"/><path class="a" d="m240 69.7l10 17.3h-20z"/><path class="a" d="m250 87l10-17.3h-20z"/><path class="a" d="m180 17.7l10 17.3h-20z"/><path class="a" d="m170 35l10-17.3h-20z"/><path class="a" d="m190 35l-10 17.4h20z"/><path class="a" d="m180 52.4l-10-17.4h20z"/><path class="a" d="m200 52.4l-10 17.3h20z"/><path class="a" d="m190 69.7l-10-17.3h20z"/><path class="a" d="m210 69.7l-10 17.3h20z"/><path class="a" d="m200 87l-10-17.3h20z"/><path class="a" d="m150 17.7l10 17.3h-20z"/><path class="a" d="m140 35l10-17.3h-20z"/><path class="a" d="m160 35l-10 17.4h20z"/><path class="a" d="m150 52.4l-10-17.4h20z"/><path class="a" d="m170 52.4l-10 17.3h20z"/><path class="a" d="m160 69.7l-10-17.3h20z"/><path class="a" d="m180 69.7l-10 17.3h20z"/><path class="a" d="m170 87l-10-17.3h20z"/><path class="a" d="m230 87l-10 17.3h20z"/><path class="a" d="m240 104.3l-10-17.3h20z"/><path class="a" d="m220 104.3l10 17.3h-20z"/><path class="a" d="m230 121.6l10-17.3h-20z"/><path class="a" d="m180 121.6l-5 8.7h10z"/><path class="a" d="m185 130.3l-5-8.7h10z"/><path class="a" d="m190 121.6l-5 8.7h10z"/><path class="a" d="m195 130.3l-5-8.7h10z"/><path class="a" d="m200 87l-10 17.3h20z"/><path class="a" d="m210 104.3l-10-17.3h20z"/><path class="a" d="m190 104.3l10 17.3h-20z"/><path class="a" d="m200 121.6l10-17.3h-20z"/><path class="a" d="m170 87l-10 17.3h20z"/><path class="a" d="m180 104.3l-10-17.3h20z"/><path class="a" d="m160 104.3l10 17.3h-20z"/><path class="a" d="m170 121.6l10-17.3h-20z"/><path class="a" d="m150 121.6l10 17.4h-20z"/><path class="a" d="m160 139l10-17.4h-20z"/><path class="a" d="m140 139l10 17.3h-20z"/><path class="a" d="m150 156.3l10-17.3h-20z"/><path class="a" d="m120 17.7l10 17.3h-20z"/><path class="a" d="m130 35l-10 17.4h20z"/><path class="a" d="m120 52.4l-10-17.4h20z"/><path class="a" d="m140 52.4l-10 17.3h20z"/><path class="a" d="m130 69.7l-10-17.3h20z"/><path class="a" d="m150 69.7l-10 17.3h20z"/><path class="a" d="m140 87l-10-17.3h20z"/><path class="a" d="m140 87l-10 17.3h20z"/><path class="a" d="m150 104.3l-10-17.3h20z"/><path class="a" d="m130 104.3l10 17.3h-20z"/><path class="a" d="m140 121.6l10-17.3h-20z"/><path class="a" d="m130 139l10-17.4h-20z"/><path class="a" d="m85 78.3l10 17.4h-20z"/><path class="a" d="m95 95.7l10 17.3h-20z"/><path class="a" d="m105 113l10 17.3h-20z"/><path class="a" d="m120 121.6l10 17.4h-20z"/><path class="a" d="m85 113l10-17.3h-20z"/><path class="a" d="m95 130.3l10-17.3h-20z"/><path class="a" d="m105 147.6l10-17.3h-20z"/><path class="a" d="m120 156.3l10-17.3h-20z"/><path class="a" d="m200 139l10 17.3h-20z"/><path class="a" d="m180 139l10 17.3h-20z"/><path class="a" d="m210 156.3l10-17.3h-20z"/><path class="a" d="m190 156.3l10-17.3h-20z"/><path class="a" d="m160 139l10 17.3h-20z"/><path class="a" d="m170 156.3l10-17.3h-20z"/><path class="a" d="m220 139l10 17.3h-20z"/><path class="a" d="m230 156.3l10-17.3h-20z"/><path class="a" d="m280 139l10 17.3h-20z"/><path class="a" d="m260 139l10 17.3h-20z"/><path class="a" d="m290 156.3l10-17.3h-20z"/><path class="a" d="m270 156.3l10-17.3h-20z"/><path class="a" d="m320 139l10 17.3h-20z"/><path class="a" d="m300 139l10 17.3h-20z"/><path class="a" d="m310 156.3l10-17.3h-20z"/><path class="a" d="m240 139l10 17.3h-20z"/><path class="a" d="m250 156.3l10-17.3h-20z"/><path class="a" d="m350 17.7l-10 17.3h20z"/><path class="a" d="m360 35l-10-17.3h20z"/><path class="a" d="m340 35l10 17.4h-20z"/><path class="a" d="m350 52.4l10-17.4h-20z"/><path class="a" d="m330 52.4l10 17.3h-20z"/><path class="a" d="m340 69.7l10-17.3h-20z"/><path class="a" d="m350 69.7l10 17.3h-20z"/><path class="a" d="m320 69.7l10 17.3h-20z"/><path class="a" d="m330 87l10-17.3h-20z"/><path class="a" d="m330 87l10 17.3h-20z"/><path class="a" d="m320 104.3l10-17.3h-20z"/><path class="a" d="m385 78.3l10 17.4h-20z"/><path class="a" d="m375 95.7l10-17.4h-20z"/><path class="a" d="m360 52.4l10 17.3h-20z"/><path class="a" d="m370 69.7l10-17.3h-20z"/><path class="a" d="m360 87l10-17.3h-20z"/><path class="a" d="m350 104.3l10-17.3h-20z"/><path class="a" d="m340 104.3l-10 17.3h20z"/><path class="a" d="m330 121.6l-10-17.3h20z"/><path class="a" d="m350 121.6l-10 17.4h20z"/><path class="a" d="m340 139l-10-17.4h20z"/><path class="a" d="m360 87l10 17.3h-20z"/><path class="a" d="m360 121.6l10-17.3h-20z"/><path class="a" d="m370 104.3l10 17.3h-20z"/><path class="a" d="m360 139l-10 17.3h20z"/><path class="a" d="m350 156.3l-10-17.3h20z"/><path class="a" d="m380 139l-10 17.3h20z"/><path class="a" d="m370 156.3l-10-17.3h20z"/><path class="a" d="m400 139l-10 17.3h20z"/><path class="a" d="m390 156.3l-10-17.3h20z"/><path class="a" d="m420 139l-10 17.3h20z"/><path class="a" d="m410 156.3l-10-17.3h20z"/><path class="a" d="m390 17.7l10 17.3h-20z"/><path class="a" d="m380 35l10-17.3h-20z"/><path class="a" d="m410 35l-10-17.3h20z"/><path class="a" d="m395 95.7l-10-17.4h20z"/><path class="a" d="m440 69.7l-10 17.3h20z"/><path class="a" d="m450 87l10 17.3h-20z"/><path class="a" d="m440 104.3l10-17.3h-20z"/><path class="a" d="m460 104.3l-10 17.3h20z"/><path class="a" d="m450 121.6l-10-17.3h20z"/><path class="a" d="m470 121.6l-10 17.4h20z"/><path class="a" d="m460 139l-10-17.4h20z"/><path class="a" d="m480 139l-10 17.3h20z"/><path class="a" d="m490 156.3l-10 17.3h20z"/><path class="a" d="m470 156.3l-10-17.3h20z"/><path class="a" d="m370 17.7l10 17.3h-20z"/><path class="a" d="m465 26.4l10 17.3h-20z"/><path class="a" d="m300 17.7l10 17.3h-20z"/><path class="a" d="m320 17.7l10 17.3h-20z"/><path class="a" d="m310 35l10-17.3h-20z"/><path class="a" d="m265 78.3l10 17.4h-20z"/><path class="a" d="m285 78.3l10 17.4h-20z"/><path class="a" d="m275 95.7l10-17.4h-20z"/><path class="a" d="m330 35l10-17.3h-20z"/><path class="a" d="m295 95.7l10-17.4h-20z"/><path class="a" d="m455 43.7l-10 17.3h20z"/><path class="a" d="m465 61l-10-17.3h20z"/><path class="a" d="m490 104.3l-10 17.3h20z"/><path class="a" d="m455 78.3l-10-17.3h20z"/><path class="a" d="m490 139l10-17.4h-20z"/><path class="a" d="m480 173.6l-10-17.3h20z"/><path class="a" d="m525 78.3l10 17.4h-20z"/><path class="a" d="m535 95.7l-10 17.3h20z"/><path class="a" d="m525 113l-10-17.3h20z"/><path class="a" d="m550 87l-10-17.3h20z"/><path class="a" d="m545 113l-10 17.3h20z"/><path class="a" d="m535 130.3l-10-17.3h20z"/><path class="a" d="m545 147.6l-10-17.3h20z"/><path class="a" d="m505 43.7l-10 17.3h20z"/><path class="a" d="m515 61l-10 17.3h20z"/><path class="a" d="m495 61l-10-17.3h20z"/><path class="a" d="m500 87l10 17.3h-20z"/><path class="a" d="m500 121.6l-10-17.3h20z"/><path class="a" d="m495 9.1l-10 17.3h20z"/><path class="a" d="m505 26.4l-10-17.3h20z"/><path class="a" d="m515 95.7l-10-17.4h20z"/><path class="a" d="m505 78.3l-10-17.3h20z"/><path class="a" d="m670 87l10 17.3h-20z"/><path class="a" d="m680 104.3l10-17.3h-20z"/><path class="a" d="m660 104.3l10 17.3h-20z"/><path class="a" d="m670 121.6l10-17.3h-20z"/><path class="a" d="m650 121.6l10 17.4h-20z"/><path class="a" d="m660 139l10-17.4h-20z"/><path class="a" d="m640 139l10 17.3h-20z"/><path class="a" d="m630 156.3l10 17.3h-20z"/><path class="a" d="m650 156.3l10-17.3h-20z"/><path class="a" d="m640 173.6l10-17.3h-20z"/><path class="a" d="m625 95.7l-10 17.3h20z"/><path class="a" d="m615 113l-10-17.3h20z"/><path class="a" d="m625 130.3l-10-17.3h20z"/><path class="a" d="m590 87l10-17.3h-20z"/><path class="a" d="m570 87l10-17.3h-20z"/><path class="a" d="m560 69.7l10 17.3h-20z"/><path class="a" d="m610 87l10-17.3h-20z"/><path class="a" d="m570 121.6l10 17.4h-20z"/><path class="a" d="m580 139l10-17.4h-20z"/><path class="a" d="m580 104.3l10 17.3h-20z"/><path class="a" d="m600 69.7l10 17.3h-20z"/><path class="a" d="m590 121.6l10-17.3h-20z"/><path class="a" d="m560 139l10 17.3h-20z"/><path class="a" d="m570 156.3l10-17.3h-20z"/><path class="a" d="m560 173.6l10-17.3h-20z"/></svg>